<?xml version="1.0" encoding="utf-8"?>
<!-- Generator: Adobe Illustrator 21.0.0, SVG Export Plug-In . SVG Version: 6.00 Build 0)  -->
<svg version="1.0" id="Layer_1" xmlns="http://www.w3.org/2000/svg" xmlns:xlink="http://www.w3.org/1999/xlink" x="0px" y="0px"
	 width="855.561px" height="208.494px" viewBox="0 0 855.561 208.494" enable-background="new 0 0 855.561 208.494"
	 xml:space="preserve">
<g>
	<path fill="#ED1D24" d="M86.361,173.5c-28.4-2.3-42.6-24.7-42.6-24.7h-32.4c35.1,67.9,103.2,53.3,103.2,53.3v-87.5h-28.2
		L86.361,173.5L86.361,173.5z"/>
	<path fill="#ED1D24" d="M31.961,81.5h164.6c0,0-11.8-73.4-90.9-79.1c0,0-59.8-3.3-86.5,42.6h37.3c0,0,47.9-38.7,94.2,7.3h-138.2
		c0,0-23.9,38.2-5.5,88.7h30.6C37.661,141,19.261,106.7,31.961,81.5z"/>
	<path fill="#ED1D24" d="M123.461,171.8v29.1c0,0,63.6-11.7,75.8-87.4h-28.5C170.861,113.5,166.361,157.2,123.461,171.8z"/>
	<path fill="#ED1D24" d="M100.361,83.7c-7.8,0-14.3,6.4-14.3,14.3s6.5,14.2,14.3,14.2s14.2-6.3,14.2-14.2
		C114.561,90.1,108.161,83.7,100.361,83.7z"/>
	<path fill="#ED1D24" d="M686.861,193.3c-1.6-6.2-4.6-6.9-4.6-6.9c-1.7-1.1-2-0.3-2-0.3c-1,2.1-1,4.2-1,4.2c2.7,1.5,3.9,3.2,3.9,3.2
		c1.4,1.2,0.3,1.7,0.3,1.7h-7.8c-1.1,2.5-0.3,5-0.3,5h9.4C688.161,199.7,686.861,193.3,686.861,193.3z"/>
	<path fill="#ED1D24" d="M821.161,181.3c-2.7-0.8-2-3.8-2-3.8c-2.3,2.7-3.4,6.3-3.4,6.3c2.2,1.8,2.7,6.5,2.7,6.5
		c1.2,4.6-0.1,5.2-0.1,5.2h-7.6h-0.9c0.1-1.7,0.1-6.7,0.1-6.7c0-0.9-0.6-0.2-0.6-0.2c-0.4,0.3-1.2,1.2-0.8,1
		c-1.2,0.7-1.4,2.7-1.4,2.7l-0.1,3.3h-8.8v-6c0-1.4-0.7-0.2-0.7-0.2c-0.8,0.5-2,2.5-2,2.5c-0.8,0.7-0.4,2.2-0.4,2.2l0.1,1.4h-3.1
		c0.2-1,0.3-5.8,0.3-5.8c0-1-0.6-0.4-0.6-0.4c-1.4,1-1.8,2.5-2.2,3.8s-0.3,2.3-0.3,2.3h-6c0.1-1.3,0.5-6.7,0.5-6.7
		c-0.3,0.1-0.5,0.2-0.5,0.3c-2.3,1-2.3,3.9-2.3,3.9l-0.1,0.1v0.3l-0.1,2.2h-7.1c-0.7-0.3-0.6-1-0.6-1v-1.9v-4.4
		c-0.8,0.3-2.2,2-2.2,2c-1.4,1.4-1.4,3.5-1.4,3.5v1.9h-14.5c-3.3-1.6-1.2-6.4-1.2-6.4c0.3-1.2-0.4-0.7-0.4-0.7c-2,1-2.2,3.3-2.2,3.3
		c-1.9,7.4,2.1,8.4,2.1,8.4h15.8c-0.1-0.8,0.6-1.4,0.6-1.4c0.3-0.9,0.9,0,0.9,0c0.8,0.9,1.6,1.4,1.6,1.4h7.4
		c0.2-0.4,0.5-0.5,0.5-0.5c0.8-0.8,1.4,0.5,1.4,0.5h8c0.6-1.1,0.9,0,0.9,0h15.3h0.5c0.1-1.1,0.6-1.1,0.6-1.1
		c0.3-0.1,0.5-0.1,0.8-0.1c0.4,0.1,1.2,0.8,1.3,1.2h12.1c2.2-3.4,1.1-8.1,1.1-8.1c-0.3-0.9-0.4-2.9-0.4-2.9
		c-0.1-2.2,2.3-4.9,2.3-4.9C826.261,183.6,821.161,181.3,821.161,181.3z"/>
	<polygon fill="#ED1D24" points="575.061,181.6 576.861,183.5 579.561,180.8 576.861,178.1 575.061,180.1 573.161,178.1 
		570.461,180.8 573.161,183.5 	"/>
	<polygon fill="#ED1D24" points="604.161,182.1 602.161,180.2 599.561,182.8 602.161,185.5 604.161,183.6 606.061,185.5 
		608.661,182.8 606.061,180.2 	"/>
	<polygon fill="#ED1D24" points="761.361,182.8 758.661,185.4 761.361,188.1 763.261,186.1 765.161,188.1 767.761,185.4 
		765.161,182.8 763.261,184.6 	"/>
	<polygon fill="#ED1D24" points="805.761,204.8 803.861,202.9 801.161,205.5 803.861,208.2 805.761,206.3 807.661,208.2 
		810.361,205.5 807.661,202.9 	"/>
	<polygon fill="#ED1D24" points="710.261,205.5 712.961,208.2 715.561,205.5 712.961,202.9 	"/>
	<polygon fill="#ED1D24" points="589.761,205.5 592.361,208.2 595.061,205.5 592.361,202.9 	"/>
	<path fill="#ED1D24" d="M744.561,188.6c0,0-0.8-2.4-3-0.9c0,0-0.4,0.1-1,0.4c-1.6,0.7-4.3,2.3-5.7,5.9c0,0-0.1,1.4-2.1,1.4h-6.1
		c0,0-1.4-0.1-0.7-1.2c0,0,0.7-1,0.7-1.8c0,0,0.8-0.8-0.9-0.8h-2.7c0,0-2.5,0.3-4.1-1c0,0-2.1-0.9-4.4-1.7c0,0-3.7-2-6.3,0
		c0,0-2.6,2.2-3.5,4.9c0,0-0.5,1.2,0.5,0.4c0,0,1.3-2,5.3-1.2c0,0,1.6,0.7,2.7,0.7c0,0,1.6,0.5,0.1,1.1c0,0-0.8,0-1.4,0.5h-11.4
		c0,0-2-0.9-3.7-4c0,0-1-2-1.6-0.9l-2,3.5c0,0-0.5,0.4,0.1,1l2.3,2.9c0,0,0.8,1-0.1,1.4c0,0-4.2,4.6-7,5.7c0,0-2.3,0.6-4-0.5
		c0,0-1.8-1.2-2.3-0.5c0,0-0.8,0.7,0.8,1.6c0,0,2.1,1.5,5.1,2.4c0,0,2,1.4,5.3-0.1c0,0,4.1-2.7,5.3-7.8h11.1c0,0,1.1,0.2,2.3-0.5
		c0,0,1.3-0.6,2-1.3c0,0,0.3-0.7,2.1-0.8h5c0,0,1.2-0.3,1.1,0.9v1.6h11.8c0,0,0.5-1.2,1.4-1.6l0.4-0.8l1.7-0.1c0,0,1.3,0.7,2.9,1.4
		c0.6,0.3,1.3,0.5,2,0.7c0,0,1,0.8,1.6-0.2c0,0,1.3-1.6,1.8-3c0,0,0.7-1.5-0.3-4C745.661,192.3,744.761,190,744.561,188.6z
		 M740.961,193.8l-0.5-0.3l-1.3-1c0,0,0.6-0.5,1.3-0.3c0.5,0.1,0.9,0.3,1.2,1C741.761,193.2,741.961,194.2,740.961,193.8z"/>
	<path fill="#ED1D24" d="M729.761,182.1l-1.3,0.8l0.6,0.1l0.8,0.1c0.7,0,1.5-0.3,2.3-1c0.5-0.4,1.1-1,1.9-1.9
		c0.1-0.1,0.3-0.3,0.4-0.5l1,0.7l0.8,0.5l0.2-2.3l-0.4-0.3l-0.5-0.5l0.3-0.8l0.3-0.9l0.1-0.4v-0.5c0-1.4-0.5-2.1-1.6-2.1
		c-0.3,0.1-0.5,0.2-0.7,0.3c-0.2,0-0.3,0.1-0.4,0.1c-0.3,0.2-0.5,0.5-0.8,1c-0.6,1.1-0.9,2-0.9,2.6c0,0.4,0.1,0.7,0.3,1l1.1,1
		c-1.2,1.2-2.1,1.9-2.5,2.2L729.761,182.1z M733.161,175.7l0.1-0.4l0.3-0.1c0.2,0.1,0.3,0.1,0.5,0.1c0.2,0.1,0.4,0.3,0.5,0.4
		c0.2,0.3,0.3,0.5,0.3,0.9l-0.1,0.9l-0.7-0.5l-0.1-0.1l-0.5-0.4C733.261,176.2,733.161,175.9,733.161,175.7z"/>
	<path fill="#ED1D24" d="M666.561,188.6c-0.7-2.1-3.5-0.5-4.2-0.1c-0.1,0.1-0.2,0.1-0.2,0.1c-5,1.8-5.9,6.8-5.9,6.8l-8.1,0.1
		c-0.7-0.3-1.3-2.3-1.3-2.3c-0.7-3.2-3.3-3.7-3.3-3.7h-24.3c-2.2,0-0.1-1-0.1-1c4-2.7,8.7-3.9,8.7-3.9l3.1-4.8
		c-14.4,3.8-17.7,10.6-17.7,10.6c-2,3.9,2.2,3.5,2.2,3.5h25.5l0.9,0.7l-0.5,0.9h-31.2c-1,0.1-1.2-1.2-1.2-1.2v-5.7
		c0.1-0.8-0.5-0.1-0.5-0.1l-2.7,3.7v2.3c0.1,1.1-0.5,0.8-0.5,0.8h-8.6c-0.8,0-0.7-0.9-0.7-0.9v-5.6c0-0.5-0.5,0.2-0.5,0.2l-2.7,3.2
		v1.8c-0.1,1.6-0.8,1.5-0.8,1.5h-8.4c-0.9-0.1-1.4-2.9-1.4-2.9c-0.1-3.7-1.3-10.4-1.3-10.4l-2.3,3.5c-0.8,1.2-0.1,2-0.1,2
		c0.2,0.3-0.1,0.6-0.5,0.8c-0.5,0.2-0.9,0.3-0.9,0.3c-1.8,0.8-3.7,2.4-3.7,2.4c-2.3,1.6-2.3,5.6-2.3,5.6c-0.1,1.3,0.7,1.4,0.7,1.4
		c2.5-0.3,4.3,0.8,4.3,0.8c1.1,0.5,1.9,0,1.9,0c0.1-0.1,0.1-0.1,0.1-0.1c0.7-0.7,1.4-1.9,1.4-1.9c0.6-0.3,0.7,0.2,0.7,0.2l0.1,0.5
		c0,1.3,1.5,2.3,1.5,2.3h11v-0.5c0.9-1.2,3.1,0.6,3.1,0.6h9.3c0.8,0.1,0.8-0.7,0.8-0.7c1.1-1,2.1,0.6,2.1,0.6h36.3l0.3-0.5
		c0.3-1,2.5,0.6,2.5,0.6h8.5l1.4-1.7c0.7-1.4,1.8-0.8,1.8-0.8c1.6,0.3,2.7,0.7,3.4,1c1.3,0.5,1.3,0.9,1.3,0.9c0.9,0.3,1.8,0.3,2.7,0
		c0-1,1.5-3.1,1.5-3.1c1.4-1.3,0.3-2.6,0.3-2.6C667.361,191.8,666.561,188.6,666.561,188.6z M577.961,193.7h-1.8c0,0,0.1-1,1-1.4
		c0,0,0.3-0.2,0.8-0.7c0.1-0.1,0.1-0.1,0.3-0.3v-0.1c0,0,0.7-1,1,0l0.5,2.3h-1.8V193.7z M662.961,193.8c0,0-0.2-0.2-0.6-0.3
		c-0.1,0-0.3-0.1-0.5-0.1l-0.1-0.1c0,0-1.7-0.4,0-0.9c0,0,0.3-0.2,0.7-0.1c0.3,0,0.8,0.1,1.1,0.6
		C663.461,192.9,664.361,194,662.961,193.8z"/>
	<path fill="#ED1D24" d="M832.761,196.1c-1.1,0-2,0.9-2,2s0.9,2,2,2s2-0.9,2-2C834.761,197,833.861,196.1,832.761,196.1z"/>
	<path fill="#ED1D24" d="M843.061,196.1c-1.1,0-2,0.9-2,2s0.8,2,2,2c1.1,0,2-0.9,2-2C845.161,197,844.261,196.1,843.061,196.1z"/>
	<path fill="#ED1D24" d="M853.561,196.1c-1.1,0-2,0.9-2,2s0.9,2,2,2s2-0.9,2-2C855.461,197,854.661,196.1,853.561,196.1z"/>
	<path fill="#ED1D24" d="M231.861,140.8c0,0,0.6,9.9-14.1,13.2v8.8c0,0,20.5-1.8,23.5-19.7V95.2h-9.1
		C232.061,95.2,232.661,133.1,231.861,140.8z"/>
	<path fill="#ED1D24" d="M257.261,144.6h10.6h6.8v16.5h10.3V95.7c0,0-8.1,1.3-17.1,9.7c-9.3,8.7-19.6,25.2-22.7,55.7h9.3
		C254.461,161.1,254.261,154.6,257.261,144.6z M267.861,121.5c3.6-4.8,6.8-7.2,6.8-7.2v20.1h-6.8h-6.8
		C263.061,129,265.561,124.7,267.861,121.5z"/>
	<path fill="#ED1D24" d="M325.361,160.7v-9.2c0,0-10.8-3.1-14.1-13.9c0,0,13.2-7,12.3-23c0,0-1.4-15.2-15.7-19.1
		c-1.6-0.5-3.5-0.8-5.5-0.9h-10.2v66.1h9.3v-18.5c0,0,0.2,0.3,1.2-0.1c0,0,1.6,4.1,5.3,8.5
		C311.361,154.9,317.061,159.4,325.361,160.7z M301.461,130v-25.4c2.7,0,4.8,0.5,6.4,1.3c6.1,3,6.4,9.8,6.4,9.8
		c0.3,7.5-3.1,11.1-6.4,12.8C304.661,130,301.461,130,301.461,130z"/>
	<rect x="330.861" y="94.2" fill="#ED1D24" width="9.8" height="66.5"/>
	<path fill="#ED1D24" d="M367.761,137.5c0,0,13.2-7,12.3-22.9c0,0-1.4-15.3-15.6-19.2c-1.6-0.5-3.5-0.7-5.5-0.8h-10.3v66.1h9.2
		v-18.5c0,0,0.3,0.3,1.2-0.3c0,0,1.6,4.2,5.3,8.7c3.6,4.2,9.2,8.7,17.5,10v-9.3C381.761,151.4,370.961,148.4,367.761,137.5z
		 M364.361,128.4c-3.2,1.6-6.5,1.6-6.5,1.6v-25.6c2.7,0.1,4.8,0.6,6.5,1.4c6.1,3,6.5,9.7,6.5,9.7
		C371.061,123.1,367.761,126.7,364.361,128.4z"/>
	<path fill="#ED1D24" d="M590.761,128.1c0-18.8-15.2-34.1-33.9-34.1s-33.7,15.3-33.7,34.1c0,18.6,15,33.9,33.7,33.9
		S590.761,146.8,590.761,128.1z M556.761,152.7L556.761,152.7c-13.7,0-24.7-11.1-24.7-24.8s11-24.8,24.6-24.8h0.1
		c13.7,0.1,24.6,11.1,24.6,24.8C581.461,141.5,570.461,152.7,556.761,152.7z"/>
	<path fill="#ED1D24" d="M486.361,93.6L486.361,93.6c-18.6,0.1-33.7,15.2-33.7,34c0,18.8,15.1,34,33.6,34.1h0.1
		c18.7,0,33.9-15.3,33.9-34.1C520.261,108.8,505.061,93.6,486.361,93.6z M486.361,152.3L486.361,152.3
		c-13.8-0.1-24.8-11.2-24.8-24.8c0-13.8,11-24.9,24.7-24.9h0.1c13.6,0,24.6,11.1,24.6,24.9
		C511.061,141.2,500.061,152.3,486.361,152.3z"/>
	<path fill="#ED1D24" d="M635.061,160.7v-9.2c-11.2-0.3-21.1-21.3-21.1-21.3c22.1-15.8,19.3-35.1,19.3-35.1h-8.5
		c-4.4,26.7-19,27.4-19,27.4V95.2h-8.3v65h9.3v-21.4h1.3C618.161,159.9,635.061,160.7,635.061,160.7z"/>
	<path fill="#ED1D24" d="M667.361,124.3c0,0-8.7-3.8-13.8-7.6c0,0-8.5-7.3,3.9-13.4c0,0,6.3-1.2,10.1,2.6l1.2-9.5
		c0,0-4.4-5.9-15.8-2c0,0-10.2,3.1-11.7,14.9c0,0-1.2,7.3,5.7,14.5c0,0,5.2,4,12.4,7c0,0,6.7,1.8,5.9,9.8c0,0-0.4,7-7.3,9.7
		c0,0-5.8,2-14.8-3.3l-0.8,9.8c0,0,6.5,5.2,13.6,4.2c0,0,17.4-1.5,19.2-19.4C674.861,141.6,675.761,131.3,667.361,124.3z"/>
	<path fill="#ED1D24" d="M698.561,159.6v-56.7c0,0,5.3-0.7,12.6,5.1l2.7-8.8c0,0-2.7-6.1-20.7-7.2c0,0-10.2-0.1-21.4,6.8l4.5,8.9
		c0,0,5.8-4.5,12.1-4.6v56.5H698.561z"/>
	<path fill="#ED1D24" d="M815.961,114.8c-1.6-12.2-8.9-17.6-16.1-19.8c-8-2.5-15.8-1.2-15.8-1.2v65.7h9.6v-17.1h1
		c1.6,3.1,3.3,5.7,5.2,7.8c7.9,8.9,17.3,9.5,17.3,9.5V151c-15.1-7.6-13.8-14.3-13.8-14.3C816.761,128.3,815.961,114.8,815.961,114.8
		z M799.861,127.1c-3.1,1.8-6.2,2.2-6.2,2.2v-25.4c2.5-0.2,4.6,0.3,6.2,1c6.2,2.9,6.2,10.7,6.2,10.7
		C806.161,121.7,802.961,125.2,799.861,127.1z"/>
	<path fill="#ED1D24" d="M830.361,131.7h25v-9.3h-25c0,0,2.1-20,25-20.3l-0.3-9.2c0,0-31.4-0.8-35.3,31.3c0,0-1.4,35.8,35.7,37v-9.3
		C855.461,151.8,833.161,151.4,830.361,131.7z"/>
	<path fill="#ED1D24" d="M779.961,127.4c0-18.8-15.1-34-33.8-34h-0.1c-18.6,0.1-33.6,15.3-33.6,34c0,18.6,15,33.9,33.6,34h0.1
		C764.961,161.3,779.961,146.1,779.961,127.4z M746.161,151.9c-13.6,0-24.6-11.1-24.6-24.8s11-24.8,24.6-24.8s24.6,11.1,24.6,24.8
		C770.761,140.8,759.761,151.9,746.161,151.9z"/>
	<path fill="#ED1D24" d="M444.061,126.9c5.3-7.8,1.8-18.6,1.8-18.6c-2.3-5.7-6.8-8.9-11.4-10.6c-7.4-2.7-15.4-1.8-15.4-1.8l0.4,65.3
		c5.2,0.3,11-0.5,11-0.5c1.4-0.1,2.8-0.3,4-0.7c11.5-2.9,14-13.9,14-13.9c0.3-1.9,0.5-3.7,0.6-5.2v-2.4
		C448.461,130.1,444.061,126.9,444.061,126.9z M434.361,150.2c-2.9,1.6-5.8,1.6-5.8,1.6v-45.7c2.5,0.2,4.4,0.9,5.8,1.9
		c4.1,2.9,4,8.1,4,8.1c0.4,3.5-1.8,6.5-4,8.5c-2,1.9-4,3.1-4,3.1c1.6,0.4,2.9,1,4,1.7c4.9,3.2,5.8,8.8,5.8,8.8
		C440.661,145.1,437.461,148.5,434.361,150.2z"/>
	<path fill="#ED1D24" d="M259.561,59.3h110v-34h-12.7v19.3h-97.6V38h-12.8v21c0,0,0,15.8-21.8,8c0,0,2.7,12.4,18.2,10.9
		C242.761,78,255.661,76.2,259.561,59.3z"/>
	<path fill="#ED1D24" d="M307.161,71.2c0,4.4,3.5,8,8,8c4.4,0,8-3.6,8-8c0-4.6-3.6-8.2-8-8.2
		C310.661,62.9,307.161,66.6,307.161,71.2z"/>
	<path fill="#ED1D24" d="M340.561,71.1c0-4.4-3.6-8.1-8.1-8.1c-4.4,0-8,3.6-8,8.1s3.6,8.1,8,8.1
		C336.861,79.2,340.561,75.6,340.561,71.1z"/>
	<path fill="#ED1D24" d="M400.361,76.8c0,0,12.8-0.9,16.8-17.7h129V45.3h-5.2c0,0,1.8-14.1-13.8-20.4c0,0-22.1-3.6-30.5-7.6
		c0,0-4.9-2.1-9-8.7c0,0-5.9,7.2,0.8,18.6c0,0,0.3,4.9,16.2,6.3c0,0,11.4,0.8,17.9,4.8c0,0,4.1,2.7,3.2,6.4l-109-0.4v-6.8h-12.8V61
		c0,0-5,13.8-21.8,2.9C382.161,63.9,384.861,78.3,400.361,76.8z"/>
	<path fill="#ED1D24" d="M503.661,71.1c0,4.4,3.5,8.1,8,8.1c4.4,0,8-3.7,8-8.1c0-4.5-3.6-8.1-8-8.1
		C507.161,63,503.661,66.6,503.661,71.1z"/>
	<path fill="#ED1D24" d="M561.861,54.9c0.1,2.5,0.3,4.1,0.3,4.1h19.8h259.8h12.8V43.1c-2.3-9.2-10.5-9.9-12.8-9.9
		c-0.4,0-0.6,0.1-0.6,0.1c-14.1-0.7-14.3,12.7-14.3,12.7h-23.4c1.7-15.7-11.8-16.8-11.8-16.8h-67.5c6.1-10.9,5.7-27.3,5.7-27.3
		h-11.1c2,18.3-10.7,27.3-10.7,27.3l-0.6,12.5h79.3c3.9,1.5,0.8,4.5,0.8,4.5h-105.8V27.9h-12.2v18.3h-22V29h-12.1v17.9h-36.9V15.2
		c-6.7,0.9-12.2,2.6-16.7,4.8c-17.2,8.5-19.9,24.8-20,33.5V54.9z M841.161,42.9c0.2,0,0.4,0.1,0.6,0.1c1.7,0.6,2.2,2.7,2.2,2.7h-2.2
		h-2.2C840.261,43.1,841.161,42.9,841.161,42.9z M581.861,35.6c2.8-3,5.7-4.7,5.7-4.7v16h-5.7h-5.7
		C576.461,42.3,579.161,38.4,581.861,35.6z"/>
	<path fill="#ED1D24" d="M560.961,16.1c4.4,0,8-3.6,8-8c0-4.6-3.6-8.1-8-8.1c-4.5,0-8,3.5-8,8.1
		C552.961,12.4,556.461,16.1,560.961,16.1z"/>
	<path fill="#ED1D24" d="M580.761,16.1c4.5,0,8-3.6,8-8c0-4.6-3.5-8.1-8-8.1c-4.4,0-8,3.5-8,8.1
		C572.761,12.4,576.361,16.1,580.761,16.1z"/>
	<path fill="#ED1D24" d="M660.061,16.1c4.4,0,8-3.5,8-8c0-4.4-3.6-8.1-8-8.1c-4.5,0-8,3.6-8,8.1
		C651.961,12.5,655.561,16.1,660.061,16.1z"/>
	<path fill="#ED1D24" d="M681.961,16.1c4.4,0,8-3.5,8-8c0-4.4-3.6-8.1-8-8.1c-4.5,0-8.1,3.6-8.1,8.1
		C673.961,12.5,677.461,16.1,681.961,16.1z"/>
	<path fill="#ED1D24" d="M641.161,79.2c4.4,0,8-3.7,8-8.1c0-4.5-3.6-8.1-8-8.1c-4.5,0-8.1,3.6-8.1,8.1
		C633.061,75.5,636.661,79.2,641.161,79.2z"/>
	<path fill="#ED1D24" d="M227.261,195.8c-1.2,0-2.1,1-2.1,2.1s0.9,2,2.1,2c1.1,0,2-0.9,2-2S228.361,195.8,227.261,195.8z"/>
	<path fill="#ED1D24" d="M236.661,195.8c-1.1,0-2,1-2,2.1s0.9,2,2,2c1.2,0,2.1-0.9,2.1-2S237.861,195.8,236.661,195.8z"/>
	<path fill="#ED1D24" d="M246.161,195.8c-1.1,0-2,1-2,2.1s0.9,2,2,2s2.1-0.9,2.1-2S247.261,195.8,246.161,195.8z"/>
	<path fill="#ED1D24" d="M458.461,191.8l-1.8-0.5c-0.9-0.3-1.6-0.5-2-0.7c-0.4-0.3-0.6-0.5-0.6-0.8c0-0.4,0.2-0.8,0.6-1
		c0.4-0.3,0.9-0.4,1.5-0.4c0.7,0,1.2,0.1,1.6,0.5c0.3,0.3,0.5,0.8,0.5,1.4h3.4V190c0-1.2-0.5-2.2-1.4-2.8c-0.9-0.8-2.3-1.1-4.1-1.1
		c-1.6,0-2.9,0.3-3.9,1.1c-1,0.7-1.6,1.7-1.6,2.9c0,1,0.3,1.8,1,2.5c0.7,0.6,1.8,1.1,3.3,1.5l1.8,0.5c0.7,0.2,1.2,0.5,1.5,0.7
		s0.4,0.5,0.4,0.9c0,0.5-0.2,0.9-0.7,1.2s-1,0.5-1.8,0.5s-1.4-0.2-1.8-0.6c-0.4-0.3-0.6-0.9-0.6-1.7h-3.5v0.1c0,1.4,0.5,2.5,1.6,3.4
		c1,0.8,2.4,1.2,4.2,1.2c1.7,0,3.1-0.4,4.2-1.2c1.1-0.8,1.6-1.9,1.6-3.2c0-1-0.3-1.8-0.8-2.4
		C460.661,192.7,459.761,192.2,458.461,191.8z"/>
	<polygon fill="#ED1D24" points="447.961,186.4 445.961,186.4 443.961,186.4 439.961,191.8 439.961,180.7 438.161,180.7 
		436.361,180.7 436.361,199.8 438.161,199.8 439.961,199.8 439.961,192.9 444.161,199.8 446.261,199.8 448.361,199.8 443.461,192.2 
			"/>
	<path fill="#ED1D24" d="M494.561,188l-0.5,0.7v-2.2h-1.7h-1.8v13.4h1.8h1.8v-6.8c0-1.1,0.3-2,1-2.6c0.6-0.7,1.6-0.9,2.7-0.9h0.1
		v-3.4h-0.1C496.461,186.1,495.361,186.7,494.561,188z"/>
	<path fill="#ED1D24" d="M481.061,186.1c-2.1,0-3.7,0.6-4.9,1.8s-1.8,3-1.8,5.2s0.6,3.9,1.8,5.2c1.2,1.2,2.8,1.8,4.9,1.8
		c2.1,0,3.8-0.6,5-1.8s1.8-2.9,1.8-5.2s-0.6-4-1.8-5.2S483.161,186.1,481.061,186.1z M483.361,196.6c-0.6,0.8-1.3,1.2-2.3,1.2
		s-1.8-0.4-2.3-1.1c-0.5-0.8-0.7-2-0.7-3.5s0.3-2.7,0.8-3.5s1.3-1.2,2.3-1.2s1.8,0.4,2.3,1.2s0.8,2,0.8,3.5
		C484.161,194.6,483.961,195.8,483.361,196.6z"/>
	<path fill="#ED1D24" d="M506.161,186.1L506.161,186.1c-2,0-3.5,0.7-4.6,2c-1.2,1.3-1.8,3-1.8,5.1c0,2.2,0.5,3.9,1.6,5.2
		c1.1,1.2,2.6,1.8,4.6,1.8h0.1c1.7,0,3.1-0.4,4.1-1.2s1.6-1.9,1.8-3.3h-3.6c0,0.7-0.2,1.2-0.6,1.6c-0.5,0.4-1,0.6-1.7,0.6h-0.1
		c-0.9,0-1.6-0.3-2-1c-0.4-0.6-0.6-1.5-0.7-2.7h2.7h6.1v-0.8v-0.1c0-2.3-0.5-4.1-1.5-5.3C509.761,186.7,508.161,186.1,506.161,186.1
		z M506.161,191.6h-2.7c0.1-0.8,0.3-1.5,0.6-2c0.4-0.8,1.1-1.2,2.1-1.2s1.7,0.3,2.1,1c0.3,0.4,0.5,1.1,0.5,2.1h-2.6V191.6z"/>
	<path fill="#ED1D24" d="M469.561,182.6l-3.6,1.8v2h-2.4v2.4h2.4v7.3c0,1.4,0.3,2.4,0.8,3.1c0.6,0.7,1.6,0.9,2.9,0.9
		c1,0,1.8-0.1,2.6-0.2v-2.3c-0.3,0.1-0.7,0.1-1,0.1c-0.7,0-1.1-0.1-1.4-0.5c-0.3-0.4-0.4-1-0.4-1.8v-6.7h2.7v-2.4h-2.7v-3.7H469.561
		z"/>
	<path fill="#ED1D24" d="M426.661,186.1c-2.2,0-3.8,0.6-5,1.8s-1.8,3-1.8,5.2s0.6,3.9,1.8,5.2c1.2,1.2,2.8,1.8,5,1.8
		c2.1,0,3.7-0.6,4.9-1.8c1.2-1.2,1.8-2.9,1.8-5.2s-0.6-4-1.8-5.2S428.761,186.1,426.661,186.1z M428.961,196.6
		c-0.5,0.8-1.3,1.2-2.3,1.2c-1.1,0-1.9-0.4-2.3-1.1c-0.5-0.8-0.8-2-0.8-3.5s0.3-2.7,0.8-3.5s1.3-1.2,2.3-1.2s1.8,0.4,2.3,1.2
		s0.8,2,0.8,3.5C429.761,194.6,429.461,195.8,428.961,196.6z"/>
	<path fill="#ED1D24" d="M410.861,186.1c-2.1,0-3.7,0.6-4.9,1.8c-1.2,1.2-1.8,3-1.8,5.2s0.6,3.9,1.8,5.2c1.2,1.2,2.8,1.8,4.9,1.8
		c2.2,0,3.8-0.6,5-1.8s1.8-2.9,1.8-5.2s-0.6-4-1.8-5.2C414.561,186.7,412.961,186.1,410.861,186.1z M413.161,196.6
		c-0.5,0.8-1.3,1.2-2.3,1.2s-1.8-0.4-2.3-1.1c-0.5-0.8-0.8-2-0.8-3.5s0.3-2.7,0.8-3.5s1.3-1.2,2.3-1.2s1.8,0.4,2.3,1.2
		s0.8,2,0.8,3.5C413.961,194.6,413.661,195.8,413.161,196.6z"/>
	<path fill="#ED1D24" d="M323.361,186.4v7.6c0,1.2-0.3,2.1-0.8,2.7c-0.5,0.7-1.2,1-2.2,1c-0.7,0-1.3-0.3-1.8-1s-0.7-1.5-0.7-2.5
		v-7.8h-1.8h-1.8v8.1c0,1.9,0.5,3.3,1.2,4.2c0.9,0.9,2,1.4,3.7,1.4c1.6,0,2.8-0.5,3.7-1.6c0.3-0.3,0.5-0.6,0.6-0.8v2.1h1.7h1.6
		v-13.4h-1.8H323.361z"/>
	<rect x="307.561" y="180.7" fill="#ED1D24" width="3.9" height="3.5"/>
	<path fill="#ED1D24" d="M264.661,186.1c-1.6,0-2.9,0.5-3.6,1.5c-0.2,0.3-0.5,0.6-0.6,1v-2.2h-1.7h-1.8v13.4h1.8h1.8v-7.6
		c0-1.2,0.3-2.2,0.7-2.9c0.5-0.6,1.2-0.9,2.2-0.9c0.7,0,1.3,0.3,1.8,0.8c0.5,0.6,0.7,1.2,0.7,2.2v8.4h1.8h1.8v-8.4
		c0-1.8-0.4-3.1-1.2-4C267.461,186.5,266.261,186.1,264.661,186.1z"/>
	<path fill="#ED1D24" d="M278.961,186.1c-2.2,0-3.8,0.6-5,1.8s-1.8,3-1.8,5.2s0.6,3.9,1.8,5.2c1.2,1.2,2.8,1.8,5,1.8
		c2.1,0,3.7-0.6,4.9-1.8c1.2-1.2,1.8-2.9,1.8-5.2s-0.6-4-1.8-5.2C282.661,186.7,281.061,186.1,278.961,186.1z M281.261,196.6
		c-0.5,0.8-1.3,1.2-2.3,1.2c-1.1,0-1.9-0.4-2.3-1.1c-0.5-0.8-0.8-2-0.8-3.5s0.3-2.7,0.8-3.5s1.3-1.2,2.3-1.2s1.8,0.4,2.3,1.2
		s0.8,2,0.8,3.5C282.061,194.6,281.761,195.8,281.261,196.6z"/>
	<path fill="#ED1D24" d="M307.661,186.4V201c0,0.5-0.1,0.9-0.5,1.2c-0.3,0.3-0.8,0.5-1.4,0.5h-0.6v2.3h2c1.4,0,2.5-0.3,3.2-0.9
		c0.7-0.6,1-1.7,1-3.1v-14.6h-1.8H307.661z"/>
	<path fill="#ED1D24" d="M293.461,182.6l-3.6,1.8v2h-2.4v2.4h2.4v7.3c0,1.4,0.3,2.4,0.8,3.1c0.6,0.7,1.6,0.9,2.9,0.9
		c1,0,1.8-0.1,2.6-0.2v-2.3c-0.3,0.1-0.7,0.1-1,0.1c-0.7,0-1.1-0.1-1.4-0.5s-0.4-1-0.4-1.8v-6.7h2.7v-2.4h-2.7v-3.7H293.461z"/>
	<path fill="#ED1D24" d="M374.961,195.9v-4.8c0-1.7-0.5-2.9-1.5-3.8c-1-0.9-2.5-1.2-4.5-1.2h-0.1c-1.8,0-3.1,0.3-4,1
		s-1.4,1.8-1.5,3.1h3.6c0-0.7,0.2-1.1,0.5-1.4c0.3-0.3,0.7-0.4,1.4-0.4h0.1c0.9,0,1.4,0.2,1.8,0.5s0.6,0.9,0.6,1.7v0.6h-1.7h-0.8
		c-1.9,0.1-3.3,0.5-4.3,1.2c-1.1,0.8-1.7,2-1.7,3.5c0,1.3,0.4,2.3,1.2,3.1c0.8,0.7,2,1,3.4,1c0.5,0,0.9,0,1.4-0.1
		c0.9-0.2,1.7-0.7,2.3-1.3l0.4-0.5l0.3,1.6h3.4c-0.1-0.3-0.2-0.7-0.3-1.4C374.961,197.8,374.961,196.9,374.961,195.9z
		 M371.361,194.4c-0.1,1.2-0.3,2-0.8,2.5c-0.4,0.5-1,0.8-1.7,0.8h-0.3c-0.7,0-1.2-0.2-1.6-0.5s-0.6-0.8-0.6-1.4c0-0.9,0.4-1.4,1-1.9
		c0.4-0.3,0.8-0.5,1.4-0.5c0.5-0.1,0.9-0.1,1.5-0.1h1v1.1H371.361z"/>
	<path fill="#ED1D24" d="M399.961,190.7c-0.6-0.5-1.5-0.7-2.5-1c0.7-0.2,1.4-0.5,2-0.8c1.2-0.8,1.9-2,1.9-3.5s-0.6-2.7-1.6-3.5
		c-1.1-0.8-2.7-1.2-4.8-1.2h-0.4h-4.9h-2v19.1h2h4.9h0.3c2.4,0,4.2-0.5,5.5-1.4c1.2-0.8,1.9-2.1,1.9-3.8
		C402.161,192.8,401.461,191.5,399.961,190.7z M391.561,183.6h2.2h0.7c0.8,0.1,1.6,0.3,2,0.7c0.7,0.4,0.9,1,0.9,1.8s-0.3,1.4-1,1.7
		c-0.5,0.3-1.1,0.4-1.9,0.5c-0.5,0-1,0.1-1.5,0.1h-1.4L391.561,183.6L391.561,183.6z M397.161,196.1c-0.7,0.5-1.5,0.7-2.7,0.7h-0.6
		h-2.3v-5.5h2.9h0.3c1,0,1.9,0.3,2.5,0.7c0.7,0.5,1,1.2,1,2C398.261,194.9,397.961,195.6,397.161,196.1z"/>
	<path fill="#ED1D24" d="M348.961,182.6l-3.6,1.8v2h-2.4v2.4h2.4v7.3c0,1.4,0.3,2.4,0.8,3.1c0.6,0.7,1.6,0.9,2.9,0.9
		c1,0,1.9-0.1,2.6-0.2v-2.3c-0.3,0.1-0.6,0.1-0.9,0.1c-0.7,0-1.2-0.1-1.4-0.5c-0.3-0.4-0.4-1-0.4-1.8v-6.7h2.7v-2.4h-2.7V182.6z"/>
	<path fill="#ED1D24" d="M337.761,191.8l-1.8-0.5c-0.9-0.3-1.6-0.5-2-0.7c-0.4-0.3-0.6-0.5-0.6-0.8c0-0.4,0.2-0.8,0.6-1
		c0.4-0.3,0.9-0.4,1.5-0.4c0.7,0,1.2,0.1,1.6,0.5c0.3,0.3,0.5,0.8,0.5,1.4h3.4V190c0-1.2-0.5-2.2-1.4-2.8c-0.9-0.8-2.3-1.1-4.1-1.1
		c-1.6,0-2.9,0.3-3.9,1.1c-1,0.7-1.6,1.7-1.6,2.9c0,1,0.3,1.8,1,2.5c0.7,0.6,1.8,1.1,3.3,1.5l1.8,0.5c0.7,0.2,1.2,0.5,1.5,0.7
		s0.4,0.5,0.4,0.9c0,0.5-0.2,0.9-0.7,1.2s-1,0.5-1.8,0.5s-1.3-0.2-1.8-0.6c-0.4-0.3-0.6-0.9-0.6-1.7h-3.3v0.1c0,1.4,0.5,2.5,1.6,3.4
		c1,0.8,2.4,1.2,4.2,1.2c1.7,0,3.1-0.4,4.2-1.2s1.6-1.9,1.6-3.2c0-1-0.3-1.8-0.8-2.4C340.061,192.7,339.061,192.2,337.761,191.8z"/>
</g>
</svg>
